<?xml version="1.0" encoding="utf-8" standalone="no"?>
<!DOCTYPE svg PUBLIC "-//W3C//DTD SVG 1.1//EN"
  "http://www.w3.org/Graphics/SVG/1.1/DTD/svg11.dtd">
<svg xmlns:xlink="http://www.w3.org/1999/xlink" width="515.876908pt" height="286.956516pt" viewBox="0 0 515.876908 286.956516" xmlns="http://www.w3.org/2000/svg" version="1.1">
 <metadata>
  <rdf:RDF xmlns:dc="http://purl.org/dc/elements/1.1/" xmlns:cc="http://creativecommons.org/ns#" xmlns:rdf="http://www.w3.org/1999/02/22-rdf-syntax-ns#">
   <cc:Work>
    <dc:type rdf:resource="http://purl.org/dc/dcmitype/StillImage"/>
    <dc:date>2026-07-13T16:23:51.857056</dc:date>
    <dc:format>image/svg+xml</dc:format>
    <dc:creator>
     <cc:Agent>
      <dc:title>Matplotlib v3.10.5, https://matplotlib.org/</dc:title>
     </cc:Agent>
    </dc:creator>
   </cc:Work>
  </rdf:RDF>
 </metadata>
 <defs>
  <style type="text/css">*{stroke-linejoin: round; stroke-linecap: butt}</style>
 </defs>
 <g id="figure_1">
  <g id="patch_1">
   <path d="M 0 286.956516 
L 515.876908 286.956516 
L 515.876908 0 
L 0 0 
z
" style="fill: #ffffff"/>
  </g>
  <g id="axes_1">
   <g id="patch_2">
    <path d="M 92.617188 210.930516 
L 272.071019 210.930516 
L 272.071019 20.418516 
L 92.617188 20.418516 
z
" style="fill: #ffffff"/>
   </g>
   <g id="patch_3">
    <path d="M 92.617188 29.078152 
L 272.071019 29.078152 
L 272.071019 39.021522 
L 92.617188 39.021522 
z
" clip-path="url(#p7b0856710c)" style="fill: #009e73"/>
   </g>
   <g id="patch_4">
    <path d="M 92.617188 43.919003 
L 272.071019 43.919003 
L 272.071019 53.862373 
L 92.617188 53.862373 
z
" clip-path="url(#p7b0856710c)" style="fill: #009e73"/>
   </g>
   <g id="patch_5">
    <path d="M 92.617188 58.759853 
L 92.617188 58.759853 
L 92.617188 68.703223 
L 92.617188 68.703223 
z
" clip-path="url(#p7b0856710c)" style="fill: #009e73"/>
   </g>
   <g id="patch_6">
    <path d="M 92.617188 73.600704 
L 92.617188 73.600704 
L 92.617188 83.544074 
L 92.617188 83.544074 
z
" clip-path="url(#p7b0856710c)" style="fill: #009e73"/>
   </g>
   <g id="patch_7">
    <path d="M 92.617188 88.441555 
L 92.617188 88.441555 
L 92.617188 98.384925 
L 92.617188 98.384925 
z
" clip-path="url(#p7b0856710c)" style="fill: #009e73"/>
   </g>
   <g id="patch_8">
    <path d="M 92.617188 103.282405 
L 92.617188 103.282405 
L 92.617188 113.225775 
L 92.617188 113.225775 
z
" clip-path="url(#p7b0856710c)" style="fill: #009e73"/>
   </g>
   <g id="patch_9">
    <path d="M 92.617188 118.123256 
L 195.097167 118.123256 
L 195.097167 128.066626 
L 92.617188 128.066626 
z
" clip-path="url(#p7b0856710c)" style="fill: #009e73"/>
   </g>
   <g id="patch_10">
    <path d="M 92.617188 132.964107 
L 92.617188 132.964107 
L 92.617188 142.907477 
L 92.617188 142.907477 
z
" clip-path="url(#p7b0856710c)" style="fill: #009e73"/>
   </g>
   <g id="patch_11">
    <path d="M 92.617188 147.804957 
L 272.071019 147.804957 
L 272.071019 157.748327 
L 92.617188 157.748327 
z
" clip-path="url(#p7b0856710c)" style="fill: #009e73"/>
   </g>
   <g id="patch_12">
    <path d="M 92.617188 162.645808 
L 92.617188 162.645808 
L 92.617188 172.589178 
L 92.617188 172.589178 
z
" clip-path="url(#p7b0856710c)" style="fill: #009e73"/>
   </g>
   <g id="patch_13">
    <path d="M 92.617188 177.486659 
L 272.071019 177.486659 
L 272.071019 187.430029 
L 92.617188 187.430029 
z
" clip-path="url(#p7b0856710c)" style="fill: #009e73"/>
   </g>
   <g id="patch_14">
    <path d="M 92.617188 192.327509 
L 92.617188 192.327509 
L 92.617188 202.270879 
L 92.617188 202.270879 
z
" clip-path="url(#p7b0856710c)" style="fill: #009e73"/>
   </g>
   <g id="patch_15">
    <path d="M 272.071019 29.078152 
L 272.071019 29.078152 
L 272.071019 39.021522 
L 272.071019 39.021522 
z
" clip-path="url(#p7b0856710c)" style="fill: #e69f00"/>
   </g>
   <g id="patch_16">
    <path d="M 272.071019 43.919003 
L 272.071019 43.919003 
L 272.071019 53.862373 
L 272.071019 53.862373 
z
" clip-path="url(#p7b0856710c)" style="fill: #e69f00"/>
   </g>
   <g id="patch_17">
    <path d="M 92.617188 58.759853 
L 92.617188 58.759853 
L 92.617188 68.703223 
L 92.617188 68.703223 
z
" clip-path="url(#p7b0856710c)" style="fill: #e69f00"/>
   </g>
   <g id="patch_18">
    <path d="M 92.617188 73.600704 
L 92.617188 73.600704 
L 92.617188 83.544074 
L 92.617188 83.544074 
z
" clip-path="url(#p7b0856710c)" style="fill: #e69f00"/>
   </g>
   <g id="patch_19">
    <path d="M 92.617188 88.441555 
L 92.617188 88.441555 
L 92.617188 98.384925 
L 92.617188 98.384925 
z
" clip-path="url(#p7b0856710c)" style="fill: #e69f00"/>
   </g>
   <g id="patch_20">
    <path d="M 92.617188 103.282405 
L 122.191981 103.282405 
L 122.191981 113.225775 
L 92.617188 113.225775 
z
" clip-path="url(#p7b0856710c)" style="fill: #e69f00"/>
   </g>
   <g id="patch_21">
    <path d="M 195.097167 118.123256 
L 272.071019 118.123256 
L 272.071019 128.066626 
L 195.097167 128.066626 
z
" clip-path="url(#p7b0856710c)" style="fill: #e69f00"/>
   </g>
   <g id="patch_22">
    <path d="M 92.617188 132.964107 
L 92.617188 132.964107 
L 92.617188 142.907477 
L 92.617188 142.907477 
z
" clip-path="url(#p7b0856710c)" style="fill: #e69f00"/>
   </g>
   <g id="patch_23">
    <path d="M 272.071019 147.804957 
L 272.071019 147.804957 
L 272.071019 157.748327 
L 272.071019 157.748327 
z
" clip-path="url(#p7b0856710c)" style="fill: #e69f00"/>
   </g>
   <g id="patch_24">
    <path d="M 92.617188 162.645808 
L 92.617188 162.645808 
L 92.617188 172.589178 
L 92.617188 172.589178 
z
" clip-path="url(#p7b0856710c)" style="fill: #e69f00"/>
   </g>
   <g id="patch_25">
    <path d="M 272.071019 177.486659 
L 272.071019 177.486659 
L 272.071019 187.430029 
L 272.071019 187.430029 
z
" clip-path="url(#p7b0856710c)" style="fill: #e69f00"/>
   </g>
   <g id="patch_26">
    <path d="M 92.617188 192.327509 
L 92.617188 192.327509 
L 92.617188 202.270879 
L 92.617188 202.270879 
z
" clip-path="url(#p7b0856710c)" style="fill: #e69f00"/>
   </g>
   <g id="patch_27">
    <path d="M 272.071019 29.078152 
L 272.071019 29.078152 
L 272.071019 39.021522 
L 272.071019 39.021522 
z
" clip-path="url(#p7b0856710c)" style="fill: #d55e00"/>
   </g>
   <g id="patch_28">
    <path d="M 272.071019 43.919003 
L 272.071019 43.919003 
L 272.071019 53.862373 
L 272.071019 53.862373 
z
" clip-path="url(#p7b0856710c)" style="fill: #d55e00"/>
   </g>
   <g id="patch_29">
    <path d="M 92.617188 58.759853 
L 272.071019 58.759853 
L 272.071019 68.703223 
L 92.617188 68.703223 
z
" clip-path="url(#p7b0856710c)" style="fill: #d55e00"/>
   </g>
   <g id="patch_30">
    <path d="M 92.617188 73.600704 
L 272.071019 73.600704 
L 272.071019 83.544074 
L 92.617188 83.544074 
z
" clip-path="url(#p7b0856710c)" style="fill: #d55e00"/>
   </g>
   <g id="patch_31">
    <path d="M 92.617188 88.441555 
L 272.071019 88.441555 
L 272.071019 98.384925 
L 92.617188 98.384925 
z
" clip-path="url(#p7b0856710c)" style="fill: #d55e00"/>
   </g>
   <g id="patch_32">
    <path d="M 122.191981 103.282405 
L 272.071019 103.282405 
L 272.071019 113.225775 
L 122.191981 113.225775 
z
" clip-path="url(#p7b0856710c)" style="fill: #d55e00"/>
   </g>
   <g id="patch_33">
    <path d="M 272.071019 118.123256 
L 272.071019 118.123256 
L 272.071019 128.066626 
L 272.071019 128.066626 
z
" clip-path="url(#p7b0856710c)" style="fill: #d55e00"/>
   </g>
   <g id="patch_34">
    <path d="M 92.617188 132.964107 
L 272.071019 132.964107 
L 272.071019 142.907477 
L 92.617188 142.907477 
z
" clip-path="url(#p7b0856710c)" style="fill: #d55e00"/>
   </g>
   <g id="patch_35">
    <path d="M 272.071019 147.804957 
L 272.071019 147.804957 
L 272.071019 157.748327 
L 272.071019 157.748327 
z
" clip-path="url(#p7b0856710c)" style="fill: #d55e00"/>
   </g>
   <g id="patch_36">
    <path d="M 92.617188 162.645808 
L 272.071019 162.645808 
L 272.071019 172.589178 
L 92.617188 172.589178 
z
" clip-path="url(#p7b0856710c)" style="fill: #d55e00"/>
   </g>
   <g id="patch_37">
    <path d="M 272.071019 177.486659 
L 272.071019 177.486659 
L 272.071019 187.430029 
L 272.071019 187.430029 
z
" clip-path="url(#p7b0856710c)" style="fill: #d55e00"/>
   </g>
   <g id="patch_38">
    <path d="M 92.617188 192.327509 
L 272.071019 192.327509 
L 272.071019 202.270879 
L 92.617188 202.270879 
z
" clip-path="url(#p7b0856710c)" style="fill: #d55e00"/>
   </g>
   <g id="matplotlib.axis_1">
    <g id="xtick_1">
     <g id="line2d_1">
      <defs>
       <path id="m2bbc1d0a31" d="M 0 0 
L 0 3.5 
" style="stroke: #000000; stroke-width: 0.8"/>
      </defs>
      <g>
       <use xlink:href="#m2bbc1d0a31" x="92.617188" y="210.930516" style="stroke: #000000; stroke-width: 0.8"/>
      </g>
     </g>
     <g id="text_1">
      <text style="font-size: 7.5px; font-family: 'DejaVu Sans'; text-anchor: middle" x="92.617188" y="223.629344" transform="rotate(-0 92.617188 223.629344)">0</text>
     </g>
    </g>
    <g id="xtick_2">
     <g id="line2d_2">
      <g>
       <use xlink:href="#m2bbc1d0a31" x="128.507954" y="210.930516" style="stroke: #000000; stroke-width: 0.8"/>
      </g>
     </g>
     <g id="text_2">
      <text style="font-size: 7.5px; font-family: 'DejaVu Sans'; text-anchor: middle" x="128.507954" y="223.629344" transform="rotate(-0 128.507954 223.629344)">20</text>
     </g>
    </g>
    <g id="xtick_3">
     <g id="line2d_3">
      <g>
       <use xlink:href="#m2bbc1d0a31" x="164.39872" y="210.930516" style="stroke: #000000; stroke-width: 0.8"/>
      </g>
     </g>
     <g id="text_3">
      <text style="font-size: 7.5px; font-family: 'DejaVu Sans'; text-anchor: middle" x="164.39872" y="223.629344" transform="rotate(-0 164.39872 223.629344)">40</text>
     </g>
    </g>
    <g id="xtick_4">
     <g id="line2d_4">
      <g>
       <use xlink:href="#m2bbc1d0a31" x="200.289486" y="210.930516" style="stroke: #000000; stroke-width: 0.8"/>
      </g>
     </g>
     <g id="text_4">
      <text style="font-size: 7.5px; font-family: 'DejaVu Sans'; text-anchor: middle" x="200.289486" y="223.629344" transform="rotate(-0 200.289486 223.629344)">60</text>
     </g>
    </g>
    <g id="xtick_5">
     <g id="line2d_5">
      <g>
       <use xlink:href="#m2bbc1d0a31" x="236.180253" y="210.930516" style="stroke: #000000; stroke-width: 0.8"/>
      </g>
     </g>
     <g id="text_5">
      <text style="font-size: 7.5px; font-family: 'DejaVu Sans'; text-anchor: middle" x="236.180253" y="223.629344" transform="rotate(-0 236.180253 223.629344)">80</text>
     </g>
    </g>
    <g id="xtick_6">
     <g id="line2d_6">
      <g>
       <use xlink:href="#m2bbc1d0a31" x="272.071019" y="210.930516" style="stroke: #000000; stroke-width: 0.8"/>
      </g>
     </g>
     <g id="text_6">
      <text style="font-size: 7.5px; font-family: 'DejaVu Sans'; text-anchor: middle" x="272.071019" y="223.629344" transform="rotate(-0 272.071019 223.629344)">100</text>
     </g>
    </g>
    <g id="text_7">
     <text style="font-size: 8.5px; font-family: 'DejaVu Sans'; text-anchor: middle" x="182.344103" y="235.647781" transform="rotate(-0 182.344103 235.647781)">Rows in status category (%)</text>
    </g>
   </g>
   <g id="matplotlib.axis_2">
    <g id="ytick_1">
     <g id="line2d_7">
      <defs>
       <path id="m513bc8a2db" d="M 0 0 
L -3.5 0 
" style="stroke: #000000; stroke-width: 0.8"/>
      </defs>
      <g>
       <use xlink:href="#m513bc8a2db" x="92.617188" y="34.049837" style="stroke: #000000; stroke-width: 0.8"/>
      </g>
     </g>
     <g id="text_8">
      <text style="font-size: 7.5px; font-family: 'DejaVu Sans'; text-anchor: end" x="85.617188" y="36.899251" transform="rotate(-0 85.617188 36.899251)">Line voltage</text>
     </g>
    </g>
    <g id="ytick_2">
     <g id="line2d_8">
      <g>
       <use xlink:href="#m513bc8a2db" x="92.617188" y="48.890688" style="stroke: #000000; stroke-width: 0.8"/>
      </g>
     </g>
     <g id="text_9">
      <text style="font-size: 7.5px; font-family: 'DejaVu Sans'; text-anchor: end" x="85.617188" y="51.740102" transform="rotate(-0 85.617188 51.740102)">Line length</text>
     </g>
    </g>
    <g id="ytick_3">
     <g id="line2d_9">
      <g>
       <use xlink:href="#m513bc8a2db" x="92.617188" y="63.731538" style="stroke: #000000; stroke-width: 0.8"/>
      </g>
     </g>
     <g id="text_10">
      <text style="font-size: 7.5px; font-family: 'DejaVu Sans'; text-anchor: end" x="85.617188" y="66.580952" transform="rotate(-0 85.617188 66.580952)">Line R</text>
     </g>
    </g>
    <g id="ytick_4">
     <g id="line2d_10">
      <g>
       <use xlink:href="#m513bc8a2db" x="92.617188" y="78.572389" style="stroke: #000000; stroke-width: 0.8"/>
      </g>
     </g>
     <g id="text_11">
      <text style="font-size: 7.5px; font-family: 'DejaVu Sans'; text-anchor: end" x="85.617188" y="81.421803" transform="rotate(-0 85.617188 81.421803)">Line X</text>
     </g>
    </g>
    <g id="ytick_5">
     <g id="line2d_11">
      <g>
       <use xlink:href="#m513bc8a2db" x="92.617188" y="93.41324" style="stroke: #000000; stroke-width: 0.8"/>
      </g>
     </g>
     <g id="text_12">
      <text style="font-size: 7.5px; font-family: 'DejaVu Sans'; text-anchor: end" x="85.617188" y="96.262654" transform="rotate(-0 85.617188 96.262654)">Line C/B</text>
     </g>
    </g>
    <g id="ytick_6">
     <g id="line2d_12">
      <g>
       <use xlink:href="#m513bc8a2db" x="92.617188" y="108.25409" style="stroke: #000000; stroke-width: 0.8"/>
      </g>
     </g>
     <g id="text_13">
      <text style="font-size: 7.5px; font-family: 'DejaVu Sans'; text-anchor: end" x="85.617188" y="111.103504" transform="rotate(-0 85.617188 111.103504)">Line max current</text>
     </g>
    </g>
    <g id="ytick_7">
     <g id="line2d_13">
      <g>
       <use xlink:href="#m513bc8a2db" x="92.617188" y="123.094941" style="stroke: #000000; stroke-width: 0.8"/>
      </g>
     </g>
     <g id="text_14">
      <text style="font-size: 7.5px; font-family: 'DejaVu Sans'; text-anchor: end" x="85.617188" y="125.944355" transform="rotate(-0 85.617188 125.944355)">Transformer vk</text>
     </g>
    </g>
    <g id="ytick_8">
     <g id="line2d_14">
      <g>
       <use xlink:href="#m513bc8a2db" x="92.617188" y="137.935792" style="stroke: #000000; stroke-width: 0.8"/>
      </g>
     </g>
     <g id="text_15">
      <text style="font-size: 7.5px; font-family: 'DejaVu Sans'; text-anchor: end" x="85.617188" y="140.785206" transform="rotate(-0 85.617188 140.785206)">Transformer R/X split</text>
     </g>
    </g>
    <g id="ytick_9">
     <g id="line2d_15">
      <g>
       <use xlink:href="#m513bc8a2db" x="92.617188" y="152.776642" style="stroke: #000000; stroke-width: 0.8"/>
      </g>
     </g>
     <g id="text_16">
      <text style="font-size: 7.5px; font-family: 'DejaVu Sans'; text-anchor: end" x="85.617188" y="155.626056" transform="rotate(-0 85.617188 155.626056)">Tap range/step</text>
     </g>
    </g>
    <g id="ytick_10">
     <g id="line2d_16">
      <g>
       <use xlink:href="#m513bc8a2db" x="92.617188" y="167.617493" style="stroke: #000000; stroke-width: 0.8"/>
      </g>
     </g>
     <g id="text_17">
      <text style="font-size: 7.5px; font-family: 'DejaVu Sans'; text-anchor: end" x="85.617188" y="170.466907" transform="rotate(-0 85.617188 170.466907)">Actual tap position</text>
     </g>
    </g>
    <g id="ytick_11">
     <g id="line2d_17">
      <g>
       <use xlink:href="#m513bc8a2db" x="92.617188" y="182.458344" style="stroke: #000000; stroke-width: 0.8"/>
      </g>
     </g>
     <g id="text_18">
      <text style="font-size: 7.5px; font-family: 'DejaVu Sans'; text-anchor: end" x="85.617188" y="185.307758" transform="rotate(-0 85.617188 185.307758)">Load P</text>
     </g>
    </g>
    <g id="ytick_12">
     <g id="line2d_18">
      <g>
       <use xlink:href="#m513bc8a2db" x="92.617188" y="197.299194" style="stroke: #000000; stroke-width: 0.8"/>
      </g>
     </g>
     <g id="text_19">
      <text style="font-size: 7.5px; font-family: 'DejaVu Sans'; text-anchor: end" x="85.617188" y="200.148608" transform="rotate(-0 85.617188 200.148608)">Load Q</text>
     </g>
    </g>
   </g>
   <g id="patch_39">
    <path d="M 92.617188 210.930516 
L 92.617188 20.418516 
" style="fill: none; stroke: #000000; stroke-width: 0.8; stroke-linejoin: miter; stroke-linecap: square"/>
   </g>
   <g id="patch_40">
    <path d="M 92.617188 210.930516 
L 272.071019 210.930516 
" style="fill: none; stroke: #000000; stroke-width: 0.8; stroke-linejoin: miter; stroke-linecap: square"/>
   </g>
   <g id="text_20">
    <text style="font-weight: 700; font-size: 10px; font-family: 'DejaVu Sans'; text-anchor: start" x="71.082728" y="18.491353" transform="rotate(-0 71.082728 18.491353)">a</text>
   </g>
   <g id="text_21">
    <text style="font-size: 9.5px; font-family: 'DejaVu Sans'; text-anchor: middle" x="182.344103" y="14.418516" transform="rotate(-0 182.344103 14.418516)">Candidate-schema parameter coverage</text>
   </g>
  </g>
  <g id="axes_2">
   <g id="patch_41">
    <path d="M 370.615925 210.930516 
L 494.377187 210.930516 
L 494.377187 20.418516 
L 370.615925 20.418516 
z
" style="fill: #ffffff"/>
   </g>
   <g id="patch_42">
    <path d="M 370.615925 29.078152 
L 473.75031 29.078152 
L 473.75031 58.740995 
L 370.615925 58.740995 
z
" clip-path="url(#pe0abbf7040)" style="fill: #d55e00"/>
   </g>
   <g id="patch_43">
    <path d="M 370.615925 76.921447 
L 407.348719 76.921447 
L 407.348719 106.58429 
L 370.615925 106.58429 
z
" clip-path="url(#pe0abbf7040)" style="fill: #e69f00"/>
   </g>
   <g id="patch_44">
    <path d="M 370.615925 124.764742 
L 398.400987 124.764742 
L 398.400987 154.427584 
L 370.615925 154.427584 
z
" clip-path="url(#pe0abbf7040)" style="fill: #56b4e9"/>
   </g>
   <g id="patch_45">
    <path d="M 370.615925 172.608036 
L 371.557791 172.608036 
L 371.557791 202.270879 
L 370.615925 202.270879 
z
" clip-path="url(#pe0abbf7040)" style="fill: #009e73"/>
   </g>
   <g id="matplotlib.axis_3">
    <g id="xtick_7">
     <g id="line2d_19">
      <g>
       <use xlink:href="#m2bbc1d0a31" x="370.615925" y="210.930516" style="stroke: #000000; stroke-width: 0.8"/>
      </g>
     </g>
     <g id="text_22">
      <text style="font-size: 7.5px; font-family: 'DejaVu Sans'; text-anchor: middle" x="370.615925" y="223.629344" transform="rotate(-0 370.615925 223.629344)">0</text>
     </g>
    </g>
    <g id="xtick_8">
     <g id="line2d_20">
      <g>
       <use xlink:href="#m2bbc1d0a31" x="417.709251" y="210.930516" style="stroke: #000000; stroke-width: 0.8"/>
      </g>
     </g>
     <g id="text_23">
      <text style="font-size: 7.5px; font-family: 'DejaVu Sans'; text-anchor: middle" x="417.709251" y="223.629344" transform="rotate(-0 417.709251 223.629344)">100</text>
     </g>
    </g>
    <g id="xtick_9">
     <g id="line2d_21">
      <g>
       <use xlink:href="#m2bbc1d0a31" x="464.802578" y="210.930516" style="stroke: #000000; stroke-width: 0.8"/>
      </g>
     </g>
     <g id="text_24">
      <text style="font-size: 7.5px; font-family: 'DejaVu Sans'; text-anchor: middle" x="464.802578" y="223.629344" transform="rotate(-0 464.802578 223.629344)">200</text>
     </g>
    </g>
    <g id="text_25">
     <text style="font-size: 8.5px; font-family: 'DejaVu Sans'; text-anchor: middle" x="432.496556" y="235.647781" transform="rotate(-0 432.496556 235.647781)">Line rows</text>
    </g>
   </g>
   <g id="matplotlib.axis_4">
    <g id="ytick_13">
     <g id="line2d_22">
      <g>
       <use xlink:href="#m513bc8a2db" x="370.615925" y="43.909573" style="stroke: #000000; stroke-width: 0.8"/>
      </g>
     </g>
     <g id="text_26">
      <text style="font-size: 7.5px; font-family: 'DejaVu Sans'; text-anchor: end" x="363.615925" y="46.758987" transform="rotate(-0 363.615925 46.758987)">OH benchmark</text>
     </g>
    </g>
    <g id="ytick_14">
     <g id="line2d_23">
      <g>
       <use xlink:href="#m513bc8a2db" x="370.615925" y="91.752868" style="stroke: #000000; stroke-width: 0.8"/>
      </g>
     </g>
     <g id="text_27">
      <text style="font-size: 7.5px; font-family: 'DejaVu Sans'; text-anchor: end" x="363.615925" y="94.602282" transform="rotate(-0 363.615925 94.602282)">Mixed 50/50 proxy</text>
     </g>
    </g>
    <g id="ytick_15">
     <g id="line2d_24">
      <g>
       <use xlink:href="#m513bc8a2db" x="370.615925" y="139.596163" style="stroke: #000000; stroke-width: 0.8"/>
      </g>
     </g>
     <g id="text_28">
      <text style="font-size: 7.5px; font-family: 'DejaVu Sans'; text-anchor: end" x="363.615925" y="142.445577" transform="rotate(-0 363.615925 142.445577)">Cable diagnostic</text>
     </g>
    </g>
    <g id="ytick_16">
     <g id="line2d_25">
      <g>
       <use xlink:href="#m513bc8a2db" x="370.615925" y="187.439458" style="stroke: #000000; stroke-width: 0.8"/>
      </g>
     </g>
     <g id="text_29">
      <text style="font-size: 7.5px; font-family: 'DejaVu Sans'; text-anchor: end" x="363.615925" y="190.288872" transform="rotate(-0 363.615925 190.288872)">Mixed weighted</text>
     </g>
    </g>
   </g>
   <g id="patch_46">
    <path d="M 370.615925 210.930516 
L 370.615925 20.418516 
" style="fill: none; stroke: #000000; stroke-width: 0.8; stroke-linejoin: miter; stroke-linecap: square"/>
   </g>
   <g id="patch_47">
    <path d="M 370.615925 210.930516 
L 494.377187 210.930516 
" style="fill: none; stroke: #000000; stroke-width: 0.8; stroke-linejoin: miter; stroke-linecap: square"/>
   </g>
   <g id="text_30">
    <text style="font-size: 8.5px; font-family: 'DejaVu Sans'; text-anchor: start" x="475.812998" y="46.255042" transform="rotate(-0 475.812998 46.255042)">219</text>
   </g>
   <g id="text_31">
    <text style="font-size: 8.5px; font-family: 'DejaVu Sans'; text-anchor: start" x="409.411407" y="94.098337" transform="rotate(-0 409.411407 94.098337)">78</text>
   </g>
   <g id="text_32">
    <text style="font-size: 8.5px; font-family: 'DejaVu Sans'; text-anchor: start" x="400.463675" y="141.941632" transform="rotate(-0 400.463675 141.941632)">59</text>
   </g>
   <g id="text_33">
    <text style="font-size: 8.5px; font-family: 'DejaVu Sans'; text-anchor: start" x="373.620479" y="189.784927" transform="rotate(-0 373.620479 189.784927)">2</text>
   </g>
   <g id="text_34">
    <text style="font-size: 7.5px; font-family: 'DejaVu Sans'; text-anchor: start; fill: #d55e00" x="374.328762" y="201.404916" transform="rotate(-0 374.328762 201.404916)">Diagnostic extension only</text>
   </g>
   <g id="text_35">
    <text style="font-weight: 700; font-size: 10px; font-family: 'DejaVu Sans'; text-anchor: start" x="355.764573" y="18.491353" transform="rotate(-0 355.764573 18.491353)">b</text>
   </g>
   <g id="text_36">
    <text style="font-size: 9.5px; font-family: 'DejaVu Sans'; text-anchor: middle" x="432.496556" y="14.418516" transform="rotate(-0 432.496556 14.418516)">Electrical-extension provenance</text>
   </g>
  </g>
  <g id="legend_1">
   <g id="patch_48">
    <path d="M 60.024977 275.19675 
L 75.024977 275.19675 
L 75.024977 269.94675 
L 60.024977 269.94675 
z
" style="fill: #009e73"/>
   </g>
   <g id="text_37">
    <text style="font-size: 7.5px; font-family: 'DejaVu Sans'; text-anchor: start" x="81.024977" y="275.19675" transform="rotate(-0 81.024977 275.19675)">Direct/derived/source-backed</text>
   </g>
   <g id="patch_49">
    <path d="M 206.424977 275.19675 
L 221.424977 275.19675 
L 221.424977 269.94675 
L 206.424977 269.94675 
z
" style="fill: #e69f00"/>
   </g>
   <g id="text_38">
    <text style="font-size: 7.5px; font-family: 'DejaVu Sans'; text-anchor: start" x="227.424977" y="275.19675" transform="rotate(-0 227.424977 275.19675)">Scenario/benchmark</text>
   </g>
   <g id="patch_50">
    <path d="M 319.890602 275.19675 
L 334.890602 275.19675 
L 334.890602 269.94675 
L 319.890602 269.94675 
z
" style="fill: #d55e00"/>
   </g>
   <g id="text_39">
    <text style="font-size: 7.5px; font-family: 'DejaVu Sans'; text-anchor: start" x="340.890602" y="275.19675" transform="rotate(-0 340.890602 275.19675)">Missing</text>
   </g>
  </g>
 </g>
 <defs>
  <clipPath id="p7b0856710c">
   <rect x="92.617188" y="20.418516" width="179.453831" height="190.512"/>
  </clipPath>
  <clipPath id="pe0abbf7040">
   <rect x="370.615925" y="20.418516" width="123.761263" height="190.512"/>
  </clipPath>
 </defs>
</svg>
